# xmcd
#
# Track frame offsets:
#	150
#	13107
#	25623
#	42925
#	54604
#	72098
#	84943
#	97432
#	108042
#	122983
#	134335
#	147788
#	158334
#	169577
#	183515
#	198009
#	214270
#
# Disc length: 3044 seconds
#
# Revision: 0
# Processed by: cddbd v1.5.2PL0 Copyright (c) Steve Scherf et al.
# Submitted via: EasyCDDAExtractor 10.0.2.1
#
DISCID=e10be211
DTITLE=Ami Varjotie ja Korsuorkesteri - Muistojen tiellä
DYEAR=2006
DGENRE=Oldies
TTITLE0=Lailla salaman
TTITLE1=Muistojen tiellä
TTITLE2=Vaimolleni
TTITLE3=Nuoruuden muistoja
TTITLE4=Soljuvat päivät
TTITLE5=Kesäyön muisto
TTITLE6=Tunturihumppa
TTITLE7=Maalaiskylän humppa
TTITLE8=Valssi elämälle
TTITLE9=Ulvokaa sudet
TTITLE10=Balladi lapin tuulesta
TTITLE11=Riemua silmissä
TTITLE12=Pois, pois pohjoiseen
TTITLE13=Kadun lapsi
TTITLE14=Mä en periks anna
TTITLE15=Nuistojen tuulettaja
TTITLE16=Satu illan
EXTD=
EXTT0=
EXTT1=
EXTT2=
EXTT3=
EXTT4=
EXTT5=
EXTT6=
EXTT7=
EXTT8=
EXTT9=
EXTT10=
EXTT11=
EXTT12=
EXTT13=
EXTT14=
EXTT15=
EXTT16=
PLAYORDER=
